<svg width="136" height="64" viewBox="0 0 136 64" fill="none" xmlns="http://www.w3.org/2000/svg">
<path d="M106.581 4.27411C106.544 4.35357 82.5822 7.25431 82.5822 7.25431C87.8261 25.9071 87.0641 36.7597 83.5233 56.3492L106.581 58.8588C132.87 30.8939 106.618 4.19465 106.581 4.27411Z" fill="black" stroke="black"/>
<path d="M32.0756 2.07816L19.9979 3.9604C52.5142 8.10653 70.1031 7.47061 100.62 2.39187L90.2679 1.76446L78.8177 1.2939H60.1522L32.0756 2.07816Z" fill="black" stroke="black"/>
<path d="M33.6441 61.8969L21.5665 60.0147C54.0827 55.8686 71.6717 56.5045 102.189 61.5832L91.8365 62.2106L80.3862 62.6812H61.7208L33.6441 61.8969Z" fill="black" stroke="black"/>
<path d="M30.3502 9.6071H6.97917C-2.00177 28.7668 -1.09798 38.4346 8.07714 54.3101H31.2913C28.3638 36.5663 28.325 26.7972 30.3502 9.6071Z" fill="black" stroke="black"/>
<path d="M126.511 2.97461C127.734 1.7865 129.689 1.81514 130.877 3.03858L134.354 6.61933C135.129 7.41723 135.111 8.6922 134.313 9.46705C133.275 10.4744 131.618 10.4501 130.611 9.41282L126.479 5.15786C125.885 4.54614 125.899 3.56867 126.511 2.97461Z" fill="#D9D9D9"/>
<path d="M126.511 60.2737C127.734 61.4618 129.689 61.4331 130.877 60.2097L134.354 56.629C135.129 55.8311 135.111 54.5561 134.313 53.7812C133.275 52.7739 131.618 52.7982 130.611 53.8355L126.479 58.0904C125.885 58.7021 125.899 59.6796 126.511 60.2737Z" fill="#D9D9D9"/>
</svg>
